<svg width="171" height="24" viewBox="0 0 171 24" fill="none" xmlns="http://www.w3.org/2000/svg">
<path d="M49.7871 7.5C50.8795 7.5 51.9229 7.66339 52.9141 7.99316L52.9131 7.99414C53.9219 8.30757 54.8122 8.77867 55.5762 9.41309H55.5752C56.3618 10.0517 56.9797 10.8407 57.4268 11.7744H57.4258C57.897 12.7058 58.127 13.7589 58.127 14.9219C58.1269 16.1012 57.8967 17.1699 57.4258 18.1172C56.9786 19.0511 56.3624 19.8486 55.5771 20.5029H55.5762C54.8118 21.1377 53.9217 21.6193 52.9121 21.9492L52.9111 21.9482C51.9208 22.2774 50.8785 22.4414 49.7871 22.4414C48.7112 22.4414 47.669 22.2778 46.6631 21.9492L46.6602 21.9482C45.6677 21.618 44.7873 21.1364 44.0244 20.5029L44.0195 20.499C43.2546 19.8461 42.6406 19.053 42.1777 18.125L42.1738 18.1182C41.7202 17.1707 41.5 16.1014 41.5 14.9219C41.5 13.7578 41.721 12.7036 42.1758 11.7715L42.1777 11.7676C42.6412 10.8384 43.2564 10.0509 44.0244 9.41309C44.7892 8.77802 45.6725 8.30503 46.668 7.99121V7.99219C47.6725 7.66453 48.7127 7.50002 49.7871 7.5ZM49.7871 13.2783C49.2494 13.2784 48.8466 13.4462 48.5352 13.7627C48.2224 14.0982 48.0732 14.4775 48.0732 14.9219C48.0733 15.4014 48.233 15.7925 48.5566 16.124C48.8688 16.4438 49.2727 16.6133 49.8135 16.6133C50.3542 16.6133 50.7581 16.4439 51.0703 16.124C51.3939 15.7925 51.5526 15.4014 51.5527 14.9219C51.5527 14.4898 51.3965 14.1145 51.0518 13.7754L51.0439 13.7686C50.7318 13.4487 50.3279 13.2783 49.7871 13.2783Z" stroke="#5ECFEE"/>
<path d="M49.8437 9.14627C50.6908 9.14627 51.5012 9.27466 52.2715 9.53397L52.2705 9.53494C53.0522 9.78099 53.7441 10.1506 54.3388 10.6492C54.9521 11.1523 55.4337 11.7738 55.7822 12.5066L55.9121 12.7879C56.1952 13.4554 56.3329 14.194 56.333 14.9959C56.333 15.924 56.1544 16.7701 55.7841 17.5213L55.7832 17.5203C55.4351 18.2535 54.9559 18.881 54.3447 19.3963H54.3437C53.7476 19.8972 53.0542 20.2765 52.2695 20.5359L52.2685 20.5349C51.4991 20.7937 50.6898 20.9226 49.8437 20.9226C49.009 20.9226 48.1999 20.7941 47.4189 20.5359L47.417 20.5349C46.6453 20.2751 45.9589 19.896 45.3642 19.3963L45.3593 19.3924C44.7627 18.8771 44.2846 18.2513 43.9248 17.5213L43.9209 17.5144C43.5662 16.765 43.3955 15.9212 43.3955 14.9959C43.3955 14.0825 43.567 13.2512 43.9228 12.5135L43.9248 12.5096C44.2852 11.7783 44.7645 11.157 45.3642 10.6531C45.9594 10.153 46.6465 9.78109 47.4189 9.53397C48.1999 9.27579 49.009 9.14631 49.8437 9.14627Z" stroke="#5ECFEE"/>
<path d="M107.568 17.954C107.568 19.031 107.331 19.9353 106.858 20.6669C106.405 21.3985 105.819 21.9878 105.098 22.4349C104.399 22.8616 103.627 23.1664 102.783 23.3493C101.94 23.5525 101.137 23.6541 100.376 23.6541C98.9762 23.6541 97.5975 23.4509 96.2393 23.0445C94.9017 22.6584 93.739 22.0996 92.7512 21.368L96.2393 17.3748C96.7332 17.8219 97.3094 18.1877 97.9679 18.4722C98.647 18.7364 99.2952 18.8685 99.9126 18.8685C100.16 18.8685 100.386 18.8278 100.592 18.7465C100.818 18.6449 100.931 18.4722 100.931 18.2283C100.931 17.9642 100.736 17.7609 100.345 17.6187C99.9743 17.4561 99.3158 17.2631 98.3692 17.0395C97.8547 16.9176 97.3299 16.7449 96.7949 16.5213C96.2599 16.2775 95.766 15.9625 95.3132 15.5764C94.8811 15.1903 94.521 14.7229 94.2329 14.1742C93.9448 13.6052 93.8007 12.9346 93.8007 12.1624C93.8007 11.126 94.0271 10.242 94.4798 9.51047C94.9531 8.7789 95.5396 8.18959 96.2393 7.74251C96.9595 7.27512 97.7312 6.93982 98.5544 6.73661C99.3981 6.51307 100.19 6.40131 100.931 6.40131C102.187 6.40131 103.432 6.5842 104.666 6.94998C105.901 7.31577 107.012 7.8238 108 8.47408L104.666 12.4063C104.152 12.0811 103.627 11.8271 103.092 11.6442C102.557 11.4613 102.032 11.3699 101.518 11.3699C101.168 11.3699 100.88 11.4207 100.653 11.5223C100.427 11.6036 100.314 11.7763 100.314 12.0405C100.314 12.2437 100.437 12.4063 100.684 12.5282C100.952 12.6298 101.549 12.7721 102.475 12.9549C103.113 13.0769 103.73 13.2699 104.327 13.5341C104.944 13.778 105.489 14.1031 105.963 14.5095C106.457 14.8956 106.848 15.3732 107.136 15.9422C107.424 16.5112 107.568 17.1818 107.568 17.954Z" fill="#89DCF3"/>
<path d="M91.6064 23.0444H84.6611V21.2765H84.5994C84.1878 21.8658 83.5704 22.384 82.7473 22.831C81.9447 23.2578 81.0187 23.4712 79.9692 23.4712C78.8168 23.4712 77.8701 23.2781 77.1293 22.892C76.3885 22.4856 75.7917 21.9674 75.339 21.3374C74.9068 20.6871 74.5981 19.9657 74.4129 19.1732C74.2483 18.3603 74.166 17.5577 74.166 16.7651V7.01086H81.3274V15.4849C81.3274 16.2977 81.4508 16.8667 81.6978 17.1919C81.9653 17.517 82.3563 17.6796 82.8708 17.6796C83.3441 17.6796 83.7248 17.4967 84.0129 17.1309C84.3216 16.7448 84.4759 16.1961 84.4759 15.4849V7.01086H91.6064V23.0444Z" fill="#89DCF3"/>
<path d="M61.2844 7.01095H68.1371V8.83987H68.1988C68.5486 8.18959 69.0631 7.65107 69.7422 7.22432C70.4419 6.79757 71.2547 6.5842 72.1808 6.5842C72.7364 6.5842 73.1891 6.635 73.539 6.73661L72.9833 12.7111C72.757 12.6501 72.4997 12.6095 72.2116 12.5892C71.9441 12.5485 71.6972 12.5282 71.4708 12.5282C70.5448 12.5282 69.8039 12.7924 69.2483 13.3207C68.6927 13.8491 68.4149 14.4994 68.4149 15.2716V23.0445H61.2844V7.01095Z" fill="#89DCF3"/>
<path d="M33.0994 6.58409C34.2313 6.58409 35.1676 6.7873 35.9084 7.19373C36.6698 7.60016 37.2666 8.12851 37.6988 8.7788C38.1515 9.40876 38.4602 10.12 38.6248 10.9125C38.81 11.7051 38.9026 12.4976 38.9026 13.2901V23.0444H31.7412V14.5094C31.7412 13.6966 31.6075 13.1276 31.34 12.8024C31.093 12.4773 30.7123 12.3147 30.1978 12.3147C29.7863 12.3147 29.4159 12.4976 29.0866 12.8634C28.7573 13.2089 28.5927 13.7677 28.5927 14.5399V23.0444H21.4622V-3.05176e-05H28.5927V8.7788H28.6544C29.066 8.18948 29.6525 7.68144 30.4139 7.2547C31.1753 6.80763 32.0705 6.58409 33.0994 6.58409Z" fill="#87DCF3"/>
<path d="M0 12.2538C0 10.5265 0.30868 8.96174 0.926041 7.55956C1.5434 6.15739 2.38713 4.95843 3.45722 3.96268C4.52731 2.96694 5.78261 2.20489 7.22312 1.67653C8.68421 1.12785 10.2379 0.853516 11.8842 0.853516C13.5716 0.853516 15.1665 1.12785 16.6687 1.67653C18.171 2.20489 19.4263 2.92629 20.4346 3.84075L15.9279 9.20559C15.5163 8.67724 15.0019 8.28097 14.3845 8.01679C13.7671 7.7323 13.0778 7.59005 12.3163 7.59005C11.699 7.59005 11.1228 7.70181 10.5877 7.92535C10.0527 8.12856 9.57938 8.43338 9.16781 8.83981C8.77681 9.24624 8.46813 9.74411 8.24176 10.3334C8.0154 10.9024 7.90222 11.5426 7.90222 12.2538C7.90222 12.965 8.0154 13.6052 8.24176 14.1742C8.48871 14.7228 8.80768 15.2004 9.19867 15.6068C9.61025 16.0132 10.0836 16.3282 10.6186 16.5518C11.1536 16.755 11.7196 16.8566 12.3163 16.8566C13.1601 16.8566 13.8803 16.6839 14.4771 16.3384C15.0945 15.9929 15.5781 15.5865 15.9279 15.1191L20.4346 20.4535C19.4469 21.4289 18.2327 22.2113 16.7922 22.8006C15.3517 23.3696 13.7157 23.6541 11.8842 23.6541C10.2379 23.6541 8.68421 23.3797 7.22312 22.8311C5.78261 22.2824 4.52731 21.5102 3.45722 20.5144C2.38713 19.4984 1.5434 18.2994 0.926041 16.9175C0.30868 15.5154 0 13.9608 0 12.2538Z" fill="url(#paint0_linear_12_24)"/>
<path d="M0 12.2538C0 10.5265 0.30868 8.96174 0.926041 7.55956C1.5434 6.15739 2.38713 4.95843 3.45722 3.96268C4.52731 2.96694 5.78261 2.20489 7.22312 1.67653C8.68421 1.12785 10.2379 0.853516 11.8842 0.853516C13.5716 0.853516 15.1665 1.12785 16.6687 1.67653C18.171 2.20489 19.4263 2.92629 20.4346 3.84075L15.9279 9.20559C15.5163 8.67724 15.0019 8.28097 14.3845 8.01679C13.7671 7.7323 13.0778 7.59005 12.3163 7.59005C11.699 7.59005 11.1228 7.70181 10.5877 7.92535C10.0527 8.12856 9.57938 8.43338 9.16781 8.83981C8.77681 9.24624 8.46813 9.74411 8.24176 10.3334C8.0154 10.9024 7.90222 11.5426 7.90222 12.2538C7.90222 12.965 8.0154 13.6052 8.24176 14.1742C8.48871 14.7228 8.80768 15.2004 9.19867 15.6068C9.61025 16.0132 10.0836 16.3282 10.6186 16.5518C11.1536 16.755 11.7196 16.8566 12.3163 16.8566C13.1601 16.8566 13.8803 16.6839 14.4771 16.3384C15.0945 15.9929 15.5781 15.5865 15.9279 15.1191L20.4346 20.4535C19.4469 21.4289 18.2327 22.2113 16.7922 22.8006C15.3517 23.3696 13.7157 23.6541 11.8842 23.6541C10.2379 23.6541 8.68421 23.3797 7.22312 22.8311C5.78261 22.2824 4.52731 21.5102 3.45722 20.5144C2.38713 19.4984 1.5434 18.2994 0.926041 16.9175C0.30868 15.5154 0 13.9608 0 12.2538Z" fill="url(#paint1_linear_12_24)"/>
<rect x="113" y="12" width="29" height="10" rx="2" fill="#1C8CA8"/>
<path d="M120.61 19L120.346 17.992H119.2L118.942 19H118.03L119.164 14.812H120.436L121.57 19H120.61ZM119.8 15.682H119.752L119.344 17.266H120.208L119.8 15.682ZM122.63 19V14.812H123.536V18.262H125.336V19H122.63ZM126.611 19V14.812H128.231C128.435 14.812 128.617 14.844 128.777 14.908C128.937 14.968 129.071 15.056 129.179 15.172C129.291 15.288 129.375 15.428 129.431 15.592C129.487 15.756 129.515 15.94 129.515 16.144C129.515 16.348 129.487 16.532 129.431 16.696C129.375 16.86 129.291 17 129.179 17.116C129.071 17.232 128.937 17.322 128.777 17.386C128.617 17.446 128.435 17.476 128.231 17.476H127.517V19H126.611ZM127.517 16.75H128.003C128.215 16.75 128.361 16.71 128.441 16.63C128.525 16.55 128.567 16.418 128.567 16.234V16.054C128.567 15.87 128.525 15.738 128.441 15.658C128.361 15.578 128.215 15.538 128.003 15.538H127.517V16.75ZM132.561 17.248H131.505V19H130.599V14.812H131.505V16.51H132.561V14.812H133.467V19H132.561V17.248ZM136.921 19L136.657 17.992H135.511L135.253 19H134.341L135.475 14.812H136.747L137.881 19H136.921ZM136.111 15.682H136.063L135.655 17.266H136.519L136.111 15.682Z" fill="#F7F7F7"/>
<defs>
<linearGradient id="paint0_linear_12_24" x1="0" y1="12.2538" x2="20.4346" y2="12.2538" gradientUnits="userSpaceOnUse">
<stop stop-color="#C3F3FF"/>
<stop offset="1" stop-color="#97CDDA"/>
</linearGradient>
<linearGradient id="paint1_linear_12_24" x1="0" y1="12.2538" x2="20.4346" y2="12.2538" gradientUnits="userSpaceOnUse">
<stop stop-color="#5ECFEE"/>
<stop offset="1" stop-color="#A0E4F7"/>
</linearGradient>
</defs>
</svg>
