<svg width="16" height="16" viewBox="0 0 16 16" fill="none" xmlns="http://www.w3.org/2000/svg">
<g clip-path="url(#clip0_9_2)">
<path d="M7.9834 2.5C8.70294 2.50001 9.39122 2.62167 10.0459 2.86426L10.0469 2.86328C10.721 3.09717 11.3158 3.45056 11.8242 3.92383H11.8232C12.3424 4.39666 12.7465 4.97644 13.0381 5.65527C13.3499 6.34292 13.5 7.11668 13.5 7.96484C13.5 8.82083 13.3505 9.60142 13.042 10.2979L13.043 10.2988C12.7507 10.983 12.3449 11.5714 11.8242 12.0576V12.0586C11.3178 12.53 10.7263 12.8882 10.0557 13.1338L10.0547 13.1328C9.39742 13.3776 8.70613 13.5 7.9834 13.5C7.26962 13.5 6.57773 13.3779 5.91113 13.1338L5.9082 13.1328C5.24866 12.8868 4.6641 12.5286 4.15918 12.0586L4.1543 12.0537C3.648 11.5693 3.24531 10.9843 2.94336 10.3057L2.94043 10.2988C2.64294 9.6024 2.50002 8.82127 2.5 7.96484C2.5 7.11928 2.64281 6.34792 2.94141 5.66211L2.94336 5.65918C3.24579 4.97952 3.64977 4.39801 4.15918 3.92383C4.66456 3.45343 5.2504 3.10152 5.91113 2.86719V2.86621C6.57773 2.6221 7.26962 2.5 7.9834 2.5ZM8.63965 7.21484C8.47221 7.02266 8.26744 6.92775 7.9834 6.92773C7.70167 6.92773 7.49773 7.02095 7.33105 7.20996C7.15486 7.42238 7.06641 7.6668 7.06641 7.96484C7.06644 8.28934 7.16257 8.54086 7.34375 8.74902C7.51123 8.94136 7.71581 9.03711 8 9.03711C8.28419 9.03711 8.48877 8.94136 8.65625 8.74902C8.83743 8.54086 8.93356 8.28934 8.93359 7.96484C8.93359 7.67719 8.8411 7.43721 8.64648 7.22266L8.63965 7.21582V7.21484Z" stroke="#73E3FF"/>
<path d="M8.01962 3.68085C8.58287 3.68085 9.12302 3.7765 9.63681 3.96893L9.8331 4.04315C10.2834 4.22695 10.6858 4.48358 11.0362 4.81366H11.0352C11.4441 5.19066 11.7611 5.65174 11.9893 6.18866C12.235 6.73672 12.3517 7.3505 12.3517 8.01874C12.3516 8.69215 12.2356 9.3103 11.9933 9.86444C11.7646 10.4062 11.4472 10.8753 11.0372 11.2629L11.0362 11.2639C10.638 11.639 10.1727 11.9231 9.64658 12.1183L9.64755 12.1193C9.13064 12.3144 8.58669 12.4103 8.01962 12.4103C7.46 12.4103 6.91731 12.314 6.39462 12.1203L6.39169 12.1193C5.8732 11.9236 5.41294 11.638 5.01572 11.2639L5.01083 11.259C4.61246 10.8733 4.29654 10.4087 4.06064 9.87225L4.05771 9.86542C3.82379 9.3113 3.71302 8.69254 3.71298 8.01874C3.71298 7.35306 3.82464 6.74172 4.05966 6.1955L4.06064 6.19159C4.29702 5.65413 4.6142 5.19185 5.01572 4.81366C5.41468 4.4379 5.87771 4.15656 6.39951 3.96991V3.97089C6.92085 3.7783 7.46155 3.68086 8.01962 3.68085Z" stroke="#73E3FF"/>
<g filter="url(#filter0_f_9_2)">
<path d="M7.9834 2.5C8.70294 2.50001 9.39122 2.62167 10.0459 2.86426L10.0469 2.86328C10.721 3.09717 11.3158 3.45056 11.8242 3.92383H11.8232C12.3424 4.39666 12.7465 4.97644 13.0381 5.65527C13.3499 6.34292 13.5 7.11668 13.5 7.96484C13.5 8.82083 13.3505 9.60142 13.042 10.2979L13.043 10.2988C12.7507 10.983 12.3449 11.5714 11.8242 12.0576V12.0586C11.3178 12.53 10.7263 12.8882 10.0557 13.1338L10.0547 13.1328C9.39742 13.3776 8.70613 13.5 7.9834 13.5C7.26962 13.5 6.57773 13.3779 5.91113 13.1338L5.9082 13.1328C5.24866 12.8868 4.6641 12.5286 4.15918 12.0586L4.1543 12.0537C3.648 11.5693 3.24531 10.9843 2.94336 10.3057L2.94043 10.2988C2.64294 9.6024 2.50002 8.82127 2.5 7.96484C2.5 7.11928 2.64281 6.34792 2.94141 5.66211L2.94336 5.65918C3.24579 4.97952 3.64977 4.39801 4.15918 3.92383C4.66456 3.45343 5.2504 3.10152 5.91113 2.86719V2.86621C6.57773 2.6221 7.26962 2.5 7.9834 2.5ZM8.63965 7.21484C8.47221 7.02266 8.26744 6.92775 7.9834 6.92773C7.70167 6.92773 7.49773 7.02095 7.33105 7.20996C7.15486 7.42238 7.06641 7.6668 7.06641 7.96484C7.06644 8.28934 7.16257 8.54086 7.34375 8.74902C7.51123 8.94136 7.71581 9.03711 8 9.03711C8.28419 9.03711 8.48877 8.94136 8.65625 8.74902C8.83743 8.54086 8.93356 8.28934 8.93359 7.96484C8.93359 7.67719 8.8411 7.43721 8.64648 7.22266L8.63965 7.21582V7.21484Z" stroke="#73E3FF"/>
<path d="M8.01962 3.68085C8.58287 3.68085 9.12302 3.7765 9.63681 3.96893L9.8331 4.04315C10.2834 4.22695 10.6858 4.48358 11.0362 4.81366H11.0352C11.4441 5.19066 11.7611 5.65174 11.9893 6.18866C12.235 6.73672 12.3517 7.3505 12.3517 8.01874C12.3516 8.69215 12.2356 9.3103 11.9933 9.86444C11.7646 10.4062 11.4472 10.8753 11.0372 11.2629L11.0362 11.2639C10.638 11.639 10.1727 11.9231 9.64658 12.1183L9.64755 12.1193C9.13064 12.3144 8.58669 12.4103 8.01962 12.4103C7.46 12.4103 6.91731 12.314 6.39462 12.1203L6.39169 12.1193C5.8732 11.9236 5.41294 11.638 5.01572 11.2639L5.01083 11.259C4.61246 10.8733 4.29654 10.4087 4.06064 9.87225L4.05771 9.86542C3.82379 9.3113 3.71302 8.69254 3.71298 8.01874C3.71298 7.35306 3.82464 6.74172 4.05966 6.1955L4.06064 6.19159C4.29702 5.65413 4.6142 5.19185 5.01572 4.81366C5.41468 4.4379 5.87771 4.15656 6.39951 3.96991V3.97089C6.92085 3.7783 7.46155 3.68086 8.01962 3.68085Z" stroke="#73E3FF"/>
</g>
</g>
<defs>
<filter id="filter0_f_9_2" x="-0.3" y="-0.3" width="16.6" height="16.6" filterUnits="userSpaceOnUse" color-interpolation-filters="sRGB">
<feFlood flood-opacity="0" result="BackgroundImageFix"/>
<feBlend mode="normal" in="SourceGraphic" in2="BackgroundImageFix" result="shape"/>
<feGaussianBlur stdDeviation="1.15" result="effect1_foregroundBlur_9_2"/>
</filter>
<clipPath id="clip0_9_2">
<rect width="16" height="16" fill="white"/>
</clipPath>
</defs>
</svg>
